# xmcd
#
# Track frame offsets: 
#        150
#        15619
#        40921
#        56129
#        79678
#        97003
#        118900
#        139053
#        157568
#        176619
#        204649
#        223869
#        252119
#        269411
#        298681
#        315219
#        331390
#
# Disc length: 4777 seconds
#
# Revision: 0
# Processed by: cddbd v1.5.2PL0 Copyright (c) Steve Scherf et al.
# Submitted via: ExactAudioCopy v1.3
#
DISCID=f412a711
DTITLE=Various Artist - Akella Presents - vol. 122 - Rockin' Blues  C
DTITLE=D1
DYEAR=2018
DGENRE=Blues
TTITLE0=Tom McGuinness - That's The Blues
TTITLE1=The Allman Brothers Band - Temptation is a Gun
TTITLE2=Big Black Bible Blues Band - Forever You Remain
TTITLE3=Mark 'Mississippi Slide' Jeghers - Stack-O-Lee
TTITLE4=Slackjaw Blues Band - Tried It Your Way
TTITLE5=Dixie Peach - Night Ride
TTITLE6=Rocky Athas - Lifeline
TTITLE7=Dan McKinnon - Some Kind Of Special
TTITLE8=Tinsley Ellis - I Got Mine
TTITLE9=Grover Windham - Rainy Day
TTITLE10=George Thorogood and The Destroyers - Any Town USA
TTITLE11=The Lachy Doley Group - Use Me
TTITLE12=Stefan Hauk - Cruising To Losing
TTITLE13=Blinddog Smokin' - Angels At The Crossroads
TTITLE14=Austin Young and No Difference - Signal
TTITLE15=Tijerina - Sometimes
TTITLE16=Coyote Kings - Hard to Be a Man
EXTD=
EXTT0=
EXTT1=
EXTT2=
EXTT3=
EXTT4=
EXTT5=
EXTT6=
EXTT7=
EXTT8=
EXTT9=
EXTT10=
EXTT11=
EXTT12=
EXTT13=
EXTT14=
EXTT15=
EXTT16=
PLAYORDER=
